<?xml version="1.0" standalone="no"?>
<!DOCTYPE svg PUBLIC "-//W3C//DTD SVG 20010904//EN"
 "http://www.w3.org/TR/2001/REC-SVG-20010904/DTD/svg10.dtd">
<svg version="1.0" xmlns="http://www.w3.org/2000/svg"
 width="356.000000pt" height="358.000000pt" viewBox="0 0 356.000000 358.000000"
 preserveAspectRatio="xMidYMid meet">

<g transform="translate(0.000000,358.000000) scale(0.100000,-0.100000)"
fill="#000000" stroke="none">
<path d="M915 3549 c-235 -24 -429 -115 -595 -279 -179 -176 -272 -367 -299
-613 -14 -124 -14 -1586 -1 -1717 18 -166 78 -331 169 -463 136 -196 334 -336
571 -404 l95 -27 882 -4 c863 -3 883 -2 985 18 418 86 730 411 793 829 22 141
22 1681 0 1822 -47 315 -243 588 -528 733 -87 44 -147 65 -262 93 -62 15 -164
17 -900 19 -456 1 -866 -2 -910 -7z m1150 -833 c41 -83 92 -179 114 -214 22
-35 42 -80 46 -102 6 -34 10 -39 42 -45 54 -10 116 -41 153 -78 35 -34 27 -45
-22 -28 -76 27 -67 8 33 -66 92 -69 172 -154 158 -168 -3 -2 -23 4 -45 15 -21
10 -57 22 -79 26 l-40 7 69 -69 c76 -77 128 -149 173 -239 34 -67 78 -193 71
-200 -2 -3 -27 17 -54 43 -28 26 -64 55 -82 65 l-31 18 25 -49 c32 -62 57
-200 49 -272 -14 -129 -57 -241 -112 -292 l-26 -23 7 25 c20 71 19 150 -2 150
-4 0 -18 -21 -31 -47 -62 -129 -160 -242 -272 -317 -53 -35 -159 -82 -159 -71
0 3 15 19 34 36 40 35 93 114 106 157 l8 31 -53 -43 c-33 -28 -88 -57 -150
-81 -102 -40 -159 -83 -171 -130 -9 -38 -28 -30 -57 22 -38 72 -60 158 -55
219 3 30 2 54 -2 54 -3 0 -17 -19 -31 -43 -20 -34 -24 -55 -24 -116 l1 -73
-20 23 c-10 13 -30 49 -44 79 -34 74 -36 186 -4 250 12 24 19 46 16 49 -17 18
-144 -91 -144 -123 0 -8 -5 -18 -11 -22 -23 -14 3 70 47 154 45 85 54 133 31
163 -40 52 -154 58 -257 14 -89 -38 -128 -41 -177 -16 -37 18 -53 37 -53 62 0
5 20 9 45 9 53 0 151 31 211 66 23 14 62 29 85 33 36 7 39 9 14 10 -16 0 -59
-13 -95 -30 -164 -78 -277 -79 -395 -4 -61 40 -75 59 -75 107 1 32 4 35 98 80
123 60 275 158 298 193 11 17 20 57 24 108 9 106 32 150 131 253 44 44 77 83
74 85 -2 3 -11 61 -20 129 -8 69 -22 165 -31 213 -23 122 -14 128 73 46 149
-140 205 -179 296 -208 20 -7 37 -18 37 -24 1 -29 39 77 59 163 36 154 41 169
62 184 41 28 57 10 134 -148z"/>
<path d="M2055 2657 c2 -10 12 -43 21 -74 21 -71 16 -213 -9 -258 -9 -16 -17
-28 -17 -25 -1 3 -3 28 -5 55 -7 82 -16 135 -23 134 -17 -1 -86 -167 -90 -216
-2 -29 -8 -53 -13 -53 -4 0 -17 12 -28 26 -34 43 -29 117 12 185 26 43 32 61
25 79 -5 12 -6 39 -3 59 l6 36 -17 -30 c-34 -59 -74 -190 -74 -243 0 -63 16
-98 65 -141 39 -34 55 -33 55 2 0 34 26 111 38 115 6 2 19 -22 28 -53 16 -51
19 -55 31 -38 25 33 53 145 53 209 0 75 -15 153 -42 208 -10 23 -16 33 -13 23z"/>
<path d="M1498 2556 c9 -32 12 -65 8 -82 l-8 -29 -14 25 c-15 24 -15 23 -9
-20 7 -51 11 -58 26 -43 26 26 17 180 -11 198 -4 2 0 -20 8 -49z"/>
<path d="M2127 2184 c-4 -4 -7 -16 -7 -26 0 -28 -51 -77 -94 -92 l-40 -14 77
-35 c96 -45 160 -90 198 -141 16 -22 29 -33 29 -25 -1 29 -40 100 -72 129
l-32 30 30 0 c17 0 53 -6 80 -14 l49 -15 -35 27 c-46 35 -142 131 -161 160 -8
13 -17 20 -22 16z"/>
<path d="M1376 2045 c-4 -22 -11 -56 -16 -75 l-9 -35 27 31 c40 47 62 54 159
54 l88 -1 -35 -22 c-20 -12 -51 -34 -70 -49 -19 -14 -51 -31 -70 -37 l-35 -11
37 4 c20 3 55 17 77 32 37 24 47 26 101 21 33 -4 77 -14 97 -22 43 -18 93 -62
93 -82 0 -16 4 -16 -45 2 -46 16 -115 20 -115 5 0 -5 10 -10 23 -10 31 0 118
-43 144 -71 27 -30 53 -90 53 -124 0 -33 -8 -32 -41 8 l-28 32 20 -63 c39
-130 17 -233 -68 -319 -29 -29 -47 -51 -40 -48 6 2 25 6 41 10 26 6 28 5 16
-10 -7 -9 -30 -25 -49 -35 -28 -15 -31 -19 -15 -20 29 0 102 49 151 102 43 47
79 111 104 183 l14 40 5 -80 6 -80 32 68 c18 37 39 98 48 135 22 99 21 98 43
78 11 -10 26 -31 34 -47 14 -29 14 -28 19 58 3 54 12 101 22 121 16 31 16 32
-4 32 -34 0 -85 26 -128 64 -49 44 -55 45 -34 4 27 -53 20 -228 -8 -228 -6 0
-10 13 -10 28 0 45 -56 145 -109 195 -58 54 -133 94 -193 103 -71 10 -76 13
-49 33 23 18 22 18 -68 24 -61 4 -108 1 -142 -7 -53 -14 -53 -14 -62 29 -2 13
-6 6 -11 -20z"/>
<path d="M1420 1936 c0 -2 7 -7 16 -10 8 -3 12 -2 9 4 -6 10 -25 14 -25 6z"/>
<path d="M1334 1918 c-3 -4 13 -8 35 -8 23 0 41 2 41 4 0 8 -71 12 -76 4z"/>
<path d="M2407 1750 c17 -78 -2 -210 -31 -210 -6 0 -20 16 -31 36 -18 34 -59
74 -76 74 -4 0 3 -24 17 -53 13 -30 30 -94 37 -143 l13 -89 19 33 c24 39 45
42 45 5 0 -28 -22 -140 -35 -178 -4 -11 10 5 30 35 89 134 117 230 97 327 -11
52 -45 130 -79 178 -12 18 -13 17 -6 -15z"/>
<path d="M1505 1673 c11 -3 24 -9 29 -13 15 -15 -14 -68 -43 -79 -18 -6 -20
-10 -8 -10 29 -1 69 45 65 77 -2 22 -8 27 -33 29 -18 1 -22 -1 -10 -4z"/>
<path d="M1455 1660 c-3 -6 1 -7 9 -4 18 7 21 14 7 14 -6 0 -13 -4 -16 -10z"/>
<path d="M1394 1624 c-18 -14 -18 -15 4 -4 12 6 22 13 22 15 0 8 -5 6 -26 -11z"/>
<path d="M1308 1574 c-38 -20 -36 -28 2 -9 17 9 30 18 30 20 0 7 -1 6 -32 -11z"/>
<path d="M2202 1418 c-72 -147 -228 -268 -377 -294 -33 -5 -37 -8 -20 -14 11
-5 39 -9 63 -9 23 -1 42 -4 42 -8 0 -5 -18 -18 -41 -31 -70 -40 -119 -144 -90
-191 6 -10 11 -5 16 19 11 49 69 106 163 158 99 54 187 136 220 204 24 50 65
200 60 221 -2 6 -18 -18 -36 -55z"/>
</g>
</svg>
